<?xml version="1.0" standalone="no"?>
<!DOCTYPE svg PUBLIC "-//W3C//DTD SVG 20010904//EN"
 "http://www.w3.org/TR/2001/REC-SVG-20010904/DTD/svg10.dtd">
<svg version="1.0" xmlns="http://www.w3.org/2000/svg"
 width="480.000000pt" height="468.000000pt" viewBox="0 0 480.000000 468.000000"
 preserveAspectRatio="xMidYMid meet">

<g transform="translate(0.000000,468.000000) scale(0.100000,-0.100000)"
fill="#000000" stroke="none">
<path d="M2839 4337 c-61 -23 -97 -55 -125 -114 -23 -46 -28 -69 -28 -134 0
-105 36 -179 108 -224 43 -26 58 -30 120 -29 80 0 114 14 163 66 42 44 63 105
63 188 0 111 -44 195 -122 236 -40 21 -136 27 -179 11z m167 -78 c86 -78 86
-260 1 -338 -35 -31 -111 -40 -158 -17 -54 26 -83 77 -87 157 -6 94 3 133 40
175 41 46 61 55 126 51 38 -3 59 -10 78 -28z"/>
<path d="M2800 3427 l0 -334 -361 -209 c-199 -115 -365 -210 -368 -212 -4 -1
-197 108 -430 243 l-424 245 -439 -253 -438 -252 2 -509 3 -510 430 -248 c237
-136 437 -247 446 -245 9 1 208 112 442 247 l426 245 3 494 3 493 405 234
c223 129 412 233 420 231 9 -2 134 -72 279 -156 144 -83 266 -151 271 -151 8
0 20 24 20 40 0 4 -103 67 -230 140 l-230 132 0 334 0 334 -25 0 -25 0 0 -315
c0 -173 -3 -315 -7 -315 -5 1 -19 7 -33 14 -21 12 -29 12 -52 0 -15 -8 -29
-14 -33 -14 -3 0 -5 142 -5 315 l0 315 -25 0 -25 0 0 -333z m-1120 -598 l355
-206 3 -475 2 -474 -400 -233 c-220 -128 -408 -235 -418 -237 -9 -2 -196 101
-417 230 l-400 234 -2 478 -3 479 408 237 407 236 55 -31 c30 -17 215 -124
410 -238z"/>
<path d="M875 2760 c-171 -98 -318 -183 -328 -189 -14 -9 -15 -16 -7 -31 6
-11 15 -20 19 -20 8 0 586 327 649 366 18 12 20 18 12 34 -6 11 -16 20 -23 19
-7 0 -151 -81 -322 -179z"/>
<path d="M1867 2533 c-4 -3 -7 -179 -7 -390 l0 -383 30 0 30 0 0 390 0 390
-23 0 c-13 0 -27 -3 -30 -7z"/>
<path d="M542 1759 c-8 -12 -10 -25 -5 -29 4 -4 156 -91 336 -194 309 -176
329 -187 342 -169 8 10 15 20 15 23 0 4 -644 377 -669 388 -3 1 -12 -7 -19
-19z"/>
<path d="M3682 2867 c-145 -53 -197 -260 -102 -410 69 -110 257 -124 346 -25
56 61 78 176 54 278 -30 126 -174 202 -298 157z m178 -85 c46 -46 64 -104 57
-189 -9 -112 -61 -168 -155 -168 -102 0 -155 69 -155 199 0 128 56 196 162
196 48 0 57 -3 91 -38z"/>
<path d="M4090 2620 l0 -250 35 0 35 0 0 120 0 120 120 0 120 0 0 -120 0 -120
35 0 35 0 0 250 0 250 -35 0 -35 0 0 -100 0 -100 -120 0 -120 0 0 100 0 100
-35 0 -35 0 0 -250z"/>
<path d="M1142 797 c-25 -27 -28 -37 -8 -37 16 0 66 38 66 51 0 18 -37 9 -58
-14z"/>
<path d="M1451 751 c-19 -12 -6 -41 18 -41 26 0 36 17 21 35 -14 17 -20 18
-39 6z"/>
<path d="M1650 715 c0 -44 0 -44 -25 -33 -72 33 -129 -86 -74 -156 22 -28 66
-35 87 -14 8 8 15 8 26 -1 29 -25 36 -2 36 125 l0 124 -25 0 c-23 0 -25 -4
-25 -45z m-11 -79 c17 -20 10 -77 -11 -89 -24 -16 -48 8 -48 47 0 49 34 73 59
42z"/>
<path d="M2040 635 c0 -106 3 -127 16 -132 9 -3 19 0 24 7 6 9 13 9 28 1 56
-30 102 8 102 85 0 74 -46 113 -101 84 -17 -10 -19 -7 -19 35 0 41 -2 45 -25
45 l-25 0 0 -125z m109 6 c13 -9 18 -71 6 -90 -8 -15 -38 -14 -53 1 -18 18
-15 75 6 87 21 13 24 13 41 2z"/>
<path d="M3017 754 c-4 -4 -7 -16 -7 -26 0 -13 7 -18 26 -18 21 0 25 4 22 22
-3 23 -27 35 -41 22z"/>
<path d="M1115 741 c-3 -6 -24 -61 -46 -121 -33 -93 -36 -112 -24 -116 20 -8
45 13 45 37 0 16 8 19 49 19 45 0 50 -2 60 -30 9 -28 43 -42 54 -22 3 4 -14
59 -37 122 -37 104 -44 115 -68 118 -14 2 -29 -2 -33 -7z m32 -139 c-16 -2
-31 -2 -33 1 -2 2 3 25 12 51 l17 48 16 -48 16 -49 -28 -3z"/>
<path d="M1307 670 c-51 -41 -39 -152 19 -166 38 -10 78 7 82 33 3 20 1 21
-28 10 -28 -11 -33 -10 -46 7 -8 11 -14 29 -14 41 0 12 6 30 14 41 13 17 18
18 45 7 28 -10 31 -9 31 8 0 39 -62 51 -103 19z"/>
<path d="M1784 678 c-49 -23 -60 -113 -19 -153 49 -50 138 -20 151 51 15 82
-57 139 -132 102z m74 -40 c17 -17 15 -73 -2 -88 -26 -21 -61 -8 -64 24 -6 48
6 76 31 76 13 0 28 -5 35 -12z"/>
<path d="M2277 670 c-47 -37 -44 -135 4 -160 39 -22 119 -5 119 24 0 10 -12
12 -46 8 -33 -3 -49 -1 -55 9 -16 25 -10 29 45 29 61 0 71 11 54 60 -17 50
-77 65 -121 30z m71 -22 c20 -20 14 -28 -23 -28 -38 0 -46 13 -17 29 22 13 26
13 40 -1z"/>
<path d="M2501 673 c-14 -9 -21 -11 -17 -5 5 8 -1 12 -19 12 l-26 0 3 -87 c3
-80 5 -88 23 -88 18 0 20 8 23 62 2 51 7 65 23 74 33 17 48 -5 51 -74 3 -54 5
-62 23 -62 18 0 20 6 19 75 -2 63 -5 77 -24 92 -28 22 -49 23 -79 1z"/>
<path d="M2842 680 c-57 -24 -62 -143 -7 -168 73 -33 135 5 135 81 0 28 -7 53
-17 66 -20 25 -77 35 -111 21z m79 -57 c15 -41 -1 -78 -37 -78 -22 0 -31 6
-38 27 -22 63 51 114 75 51z"/>
<path d="M3143 680 c-49 -20 -60 -114 -18 -155 38 -39 105 -32 105 11 0 21 -2
23 -24 12 -38 -17 -56 -4 -56 40 0 50 20 70 55 54 23 -11 25 -9 25 12 0 32
-41 44 -87 26z"/>
<path d="M3304 678 c-49 -23 -60 -113 -19 -153 49 -50 138 -20 151 51 15 82
-57 139 -132 102z m74 -40 c17 -17 15 -73 -2 -88 -26 -21 -61 -8 -64 24 -6 48
6 76 31 76 13 0 28 -5 35 -12z"/>
<path d="M1447 593 c1 -78 3 -88 20 -88 16 0 18 10 21 88 3 85 2 87 -20 87
-22 0 -23 -2 -21 -87z"/>
<path d="M2642 668 c3 -7 19 -15 36 -18 l31 -5 -36 -58 c-46 -75 -40 -89 34
-85 46 2 59 7 61 21 3 14 -4 17 -32 17 -20 0 -36 2 -36 5 0 2 14 26 30 52 46
72 42 83 -31 83 -44 0 -60 -3 -57 -12z"/>
<path d="M3012 593 c3 -80 5 -88 23 -88 18 0 20 8 23 88 l3 87 -26 0 -26 0 3
-87z"/>
</g>
</svg>
