<?xml version="1.0" standalone="no"?>
<!DOCTYPE svg PUBLIC "-//W3C//DTD SVG 20010904//EN"
 "http://www.w3.org/TR/2001/REC-SVG-20010904/DTD/svg10.dtd">
<svg version="1.0" xmlns="http://www.w3.org/2000/svg"
 width="587.000000pt" height="455.000000pt" viewBox="0 0 587.000000 455.000000"
 preserveAspectRatio="xMidYMid meet">

<g transform="translate(0.000000,455.000000) scale(0.100000,-0.100000)"
fill="#000000" stroke="none">
<path d="M4330 4457 c-52 -34 -74 -80 -74 -152 0 -108 61 -175 159 -175 66 0
111 29 143 90 30 58 26 152 -8 200 -44 62 -156 81 -220 37z m167 -52 c35 -35
35 -36 31 -106 -3 -65 -6 -74 -36 -100 -56 -50 -141 -35 -174 31 -34 68 -17
159 36 191 51 31 102 25 143 -16z"/>
<path d="M4340 3671 l0 -389 -387 -223 c-214 -123 -395 -224 -403 -223 -8 0
-204 110 -435 243 -231 134 -424 243 -430 244 -5 0 -194 -107 -420 -238 -225
-130 -419 -242 -430 -247 -17 -8 -95 33 -452 240 l-432 249 -438 -253 -438
-252 -3 -514 -2 -513 432 -250 c238 -137 440 -249 448 -249 9 0 210 112 448
249 l432 249 0 501 0 500 423 244 c232 134 427 244 432 244 6 0 203 -111 438
-247 l428 -248 412 238 c227 130 421 243 433 251 18 12 50 -4 347 -176 259
-149 329 -186 337 -176 12 15 30 4 -320 205 -107 61 -212 123 -232 136 l-38
24 0 385 c0 336 -2 385 -15 385 -13 0 -15 -48 -15 -375 0 -206 -3 -375 -6
-375 -3 0 -14 5 -24 10 -13 7 -21 7 -25 0 -3 -5 -13 -10 -21 -10 -12 0 -14 55
-14 375 0 327 -2 375 -15 375 -13 0 -15 -50 -15 -389z m-2968 -625 l423 -245
2 -493 3 -493 -417 -240 c-229 -132 -423 -240 -432 -240 -9 0 -204 108 -433
240 l-418 240 0 491 0 491 423 246 c232 135 423 245 424 246 1 1 192 -109 425
-243z"/>
<path d="M947 3168 c-3 -9 112 -81 363 -226 203 -117 373 -212 379 -212 44 0
-34 52 -346 232 -197 114 -365 210 -374 213 -9 3 -19 0 -22 -7z"/>
<path d="M190 2310 c0 -376 2 -430 15 -430 13 0 15 54 15 430 0 376 -2 430
-15 430 -13 0 -15 -54 -15 -430z"/>
<path d="M1312 1673 c-293 -169 -370 -218 -362 -228 9 -11 59 15 243 121 128
74 294 169 369 212 125 70 152 92 131 105 -5 3 -176 -92 -381 -210z"/>
<path d="M2745 3410 c-4 -6 -5 -13 -4 -15 2 -2 181 -105 397 -230 250 -144
399 -224 409 -220 10 3 13 9 7 15 -10 10 -767 448 -788 456 -8 3 -17 0 -21 -6z"/>
<path d="M5199 2957 c-53 -35 -82 -99 -76 -169 9 -105 65 -158 165 -158 98 0
157 69 156 183 0 75 -16 105 -74 145 -46 31 -124 31 -171 -1z m135 -27 c79
-30 88 -192 15 -244 -38 -26 -103 -21 -140 12 -27 24 -33 37 -37 85 -6 70 11
113 52 138 34 21 71 24 110 9z"/>
<path d="M5500 2805 l0 -165 25 0 c24 0 25 2 25 75 l0 75 85 0 85 0 0 -75 c0
-73 1 -75 25 -75 l25 0 0 165 0 165 -25 0 c-24 0 -25 -2 -25 -70 l0 -70 -85 0
-85 0 0 70 c0 68 -1 70 -25 70 l-25 0 0 -165z"/>
<path d="M900 953 c-25 -31 -28 -39 -14 -41 16 -4 84 54 84 70 0 22 -42 4 -70
-29z"/>
<path d="M2821 884 c-25 -42 -25 -44 -7 -44 12 0 66 60 66 74 0 3 -9 6 -19 6
-11 0 -28 -15 -40 -36z"/>
<path d="M1590 840 l0 -71 -30 16 c-41 21 -75 19 -107 -9 -24 -21 -28 -32 -31
-94 -4 -68 -3 -73 26 -102 36 -36 77 -39 116 -9 l26 20 0 -20 c0 -14 6 -21 20
-21 19 0 20 7 20 180 0 173 -1 180 -20 180 -18 0 -20 -7 -20 -70z m-23 -102
c50 -47 17 -148 -48 -148 -36 0 -59 33 -59 85 0 78 56 111 107 63z"/>
<path d="M1310 865 c0 -22 4 -26 23 -23 14 2 22 10 22 23 0 13 -8 21 -22 23
-19 3 -23 -1 -23 -23z"/>
<path d="M2330 865 c0 -22 4 -26 23 -23 14 2 22 10 22 23 0 13 -8 21 -22 23
-19 3 -23 -1 -23 -23z"/>
<path d="M3400 865 c0 -22 4 -26 23 -23 14 2 22 10 22 23 0 13 -8 21 -22 23
-19 3 -23 -1 -23 -23z"/>
<path d="M867 873 c-8 -12 -117 -310 -117 -317 0 -4 10 -6 22 -4 15 2 25 15
36 46 l14 43 71 -3 70 -3 15 -42 c9 -29 19 -43 31 -43 35 0 37 -11 -65 263
-22 57 -29 67 -49 67 -13 0 -26 -3 -28 -7z m52 -110 c13 -38 26 -74 29 -80 3
-10 -11 -13 -52 -13 -36 0 -56 4 -56 12 0 18 43 148 50 148 3 0 16 -30 29 -67z"/>
<path d="M1133 790 c-69 -29 -79 -170 -16 -219 14 -12 39 -21 55 -21 37 0 88
26 88 45 0 17 -26 20 -35 5 -10 -17 -71 -11 -88 8 -24 26 -23 113 1 135 22 20
73 22 90 5 19 -19 35 4 19 26 -15 20 -82 30 -114 16z"/>
<path d="M1310 675 c0 -118 1 -125 20 -125 19 0 20 7 20 125 0 118 -1 125 -20
125 -19 0 -20 -7 -20 -125z"/>
<path d="M1754 786 c-80 -36 -77 -196 4 -227 39 -15 100 -4 128 22 48 45 51
147 6 192 -25 25 -97 32 -138 13z m110 -48 c9 -12 16 -41 16 -63 0 -58 -22
-85 -70 -85 -48 0 -70 27 -70 85 0 58 22 85 70 85 29 0 43 -6 54 -22z"/>
<path d="M2153 790 c-69 -29 -79 -170 -16 -219 14 -12 39 -21 55 -21 37 0 88
26 88 45 0 17 -26 20 -35 5 -10 -17 -71 -11 -88 8 -24 26 -23 113 1 135 22 20
73 22 90 5 19 -19 35 4 19 26 -15 20 -82 30 -114 16z"/>
<path d="M2330 675 c0 -118 1 -125 20 -125 19 0 20 7 20 125 0 118 -1 125 -20
125 -19 0 -20 -7 -20 -125z"/>
<path d="M2450 675 c0 -118 1 -125 20 -125 18 0 20 7 20 85 0 74 3 87 22 105
28 26 74 26 88 1 5 -11 10 -58 10 -105 0 -81 1 -86 21 -86 20 0 21 4 17 106
-3 97 -5 107 -27 125 -28 23 -62 24 -101 4 -27 -14 -30 -14 -30 0 0 8 -9 15
-20 15 -19 0 -20 -7 -20 -125z"/>
<path d="M2758 788 c-17 -6 -28 -17 -28 -28 0 -17 2 -18 40 -3 54 22 90 7 90
-37 0 -28 -2 -30 -40 -30 -77 0 -120 -41 -100 -95 17 -44 85 -60 128 -29 20
14 22 14 22 0 0 -9 7 -16 15 -16 12 0 15 18 15 103 0 56 -4 107 -8 113 -21 32
-81 42 -134 22z m102 -153 c0 -35 -42 -62 -75 -47 -29 13 -33 46 -7 61 9 6 32
11 50 11 28 0 32 -3 32 -25z"/>
<path d="M2980 675 c0 -118 1 -125 20 -125 18 0 20 7 20 85 0 93 16 125 63
125 40 0 47 -18 47 -117 0 -86 1 -93 20 -93 18 0 20 7 20 83 0 74 3 86 23 105
26 24 57 28 75 10 8 -8 12 -46 12 -105 0 -86 1 -93 20 -93 19 0 20 7 20 104 0
101 -1 105 -26 125 -33 26 -61 26 -98 2 -29 -19 -30 -19 -54 0 -30 23 -53 24
-92 4 -27 -14 -30 -14 -30 0 0 8 -9 15 -20 15 -19 0 -20 -7 -20 -125z"/>
<path d="M3400 675 c0 -118 1 -125 20 -125 19 0 20 7 20 125 0 118 -1 125 -20
125 -19 0 -20 -7 -20 -125z"/>
<path d="M3563 790 c-69 -29 -79 -170 -16 -219 14 -12 39 -21 55 -21 37 0 88
26 88 45 0 17 -26 20 -35 5 -10 -17 -71 -11 -88 8 -24 26 -23 113 1 135 22 20
73 22 90 5 19 -19 35 4 19 26 -15 20 -82 30 -114 16z"/>
<path d="M3784 786 c-80 -36 -77 -196 4 -227 39 -15 100 -4 128 22 48 45 51
147 6 192 -25 25 -97 32 -138 13z m110 -48 c9 -12 16 -41 16 -63 0 -58 -22
-85 -70 -85 -48 0 -70 27 -70 85 0 58 22 85 70 85 29 0 43 -6 54 -22z"/>
</g>
</svg>
