<?xml version="1.0" standalone="no"?>
<!DOCTYPE svg PUBLIC "-//W3C//DTD SVG 20010904//EN"
 "http://www.w3.org/TR/2001/REC-SVG-20010904/DTD/svg10.dtd">
<svg version="1.0" xmlns="http://www.w3.org/2000/svg"
 width="620.000000pt" height="339.000000pt" viewBox="0 0 620.000000 339.000000"
 preserveAspectRatio="xMidYMid meet">

<g transform="translate(0.000000,339.000000) scale(0.100000,-0.100000)"
fill="#000000" stroke="none">
<path d="M1878 2977 l-377 -222 -1 -446 0 -447 -277 -162 c-153 -89 -280 -164
-282 -166 -3 -2 0 -9 5 -14 6 -6 111 50 283 151 151 88 282 159 290 156 9 -2
182 -101 384 -220 l369 -216 376 220 c208 122 381 224 385 229 5 4 8 206 7
448 l-1 441 38 24 c21 13 190 113 376 221 l338 198 374 -218 375 -219 0 -327
c0 -207 4 -329 10 -333 6 -3 10 -3 10 2 0 4 0 159 1 343 l0 335 -373 219
c-205 120 -380 220 -388 223 -9 2 -185 -95 -392 -216 l-376 -221 -376 220
c-206 121 -381 220 -388 219 -7 -1 -183 -101 -390 -222z m769 -24 l373 -218 0
-436 0 -437 -369 -216 c-203 -119 -374 -216 -380 -216 -12 0 -708 406 -733
428 -17 14 -18 48 -18 443 l0 429 23 14 c38 25 722 425 727 426 2 0 172 -98
377 -217z"/>
<path d="M1936 2886 c-293 -172 -355 -214 -312 -210 25 2 656 378 656 391 0 7
-3 13 -7 13 -5 -1 -156 -88 -337 -194z"/>
<path d="M2915 2689 c-10 -26 -1 -784 10 -784 14 0 19 775 5 789 -6 6 -11 4
-15 -5z"/>
<path d="M1606 1921 c-4 -6 4 -17 16 -25 63 -41 642 -376 649 -376 39 0 -36
51 -318 215 -179 105 -330 191 -334 193 -4 2 -10 -1 -13 -7z"/>
<path d="M3780 3068 c0 -13 649 -398 670 -398 6 0 10 6 8 12 -4 12 -655 398
-670 398 -5 0 -8 -6 -8 -12z"/>
<path d="M4509 2031 c-101 -33 -150 -145 -115 -262 29 -96 81 -134 178 -127
49 4 63 9 92 37 39 38 54 80 34 92 -22 14 -38 10 -38 -9 0 -24 -37 -59 -78
-73 -26 -9 -38 -8 -69 8 -58 28 -77 62 -77 135 1 103 45 158 127 158 38 0 82
-29 92 -61 5 -15 12 -18 28 -13 30 9 30 9 13 42 -31 60 -120 95 -187 73z"/>
<path d="M4880 2029 c-31 -13 -78 -56 -95 -89 -38 -74 -22 -200 32 -252 85
-81 232 -57 282 45 39 80 21 209 -35 259 -48 42 -130 58 -184 37z m128 -59
c58 -36 81 -142 46 -215 -41 -88 -158 -94 -218 -12 -25 34 -28 125 -7 176 28
66 114 91 179 51z"/>
<path d="M5299 2030 c-82 -24 -123 -89 -123 -195 0 -75 14 -113 56 -152 81
-76 229 -49 277 50 39 80 21 209 -35 259 -46 41 -117 56 -175 38z m119 -60
c44 -27 65 -79 60 -150 -5 -67 -28 -103 -81 -125 -76 -31 -157 19 -172 104
-13 76 15 149 67 174 44 22 86 21 126 -3z"/>
<path d="M5600 1836 l0 -193 25 5 c24 4 25 6 25 93 l0 89 95 0 94 0 3 -92 c3
-91 3 -92 28 -92 l25 0 3 192 2 193 -27 -3 c-27 -3 -28 -5 -31 -75 l-3 -73
-94 0 -95 0 0 75 c0 73 -1 75 -25 75 l-25 0 0 -194z"/>
<path d="M665 1572 c-70 -45 -95 -95 -95 -187 1 -122 93 -208 203 -191 100 16
152 85 151 201 0 82 -17 121 -70 162 -48 36 -143 44 -189 15z m152 -48 c81
-51 81 -215 -1 -265 -93 -56 -196 11 -196 128 0 75 24 121 74 144 44 20 84 18
123 -7z"/>
<path d="M202 1393 c3 -185 3 -188 25 -191 21 -3 22 0 25 90 l3 93 95 0 95 0
3 -92 c3 -91 3 -93 27 -93 l25 0 0 190 0 190 -25 0 c-24 0 -25 -2 -25 -75 l0
-76 -97 3 -98 3 -3 73 c-3 69 -4 72 -28 72 l-24 0 2 -187z"/>
<path d="M715 740 c-8 -14 -34 -100 -29 -100 5 0 88 91 92 101 5 12 -55 11
-63 -1z"/>
<path d="M1302 618 c-27 -27 5 -73 38 -53 20 12 4 65 -20 65 -3 0 -11 -5 -18
-12z"/>
<path d="M1655 620 c-11 -5 -33 -14 -50 -20 l-30 -13 25 -6 c23 -6 25 -12 28
-70 3 -59 2 -62 -17 -52 -109 59 -224 -100 -165 -225 27 -57 105 -83 150 -49
25 19 34 19 34 0 0 -19 4 -19 59 2 41 16 43 18 21 23 l-25 6 -5 206 c-5 200
-5 205 -25 198z m-46 -196 c17 -22 21 -41 21 -110 0 -77 -2 -85 -24 -99 -48
-32 -98 1 -115 75 -26 117 57 211 118 134z"/>
<path d="M4912 618 c-17 -17 -15 -45 4 -52 19 -7 44 10 44 30 0 20 -34 36 -48
22z"/>
<path d="M656 492 c-93 -221 -127 -289 -149 -300 -18 -9 -8 -11 48 -11 63 -1
68 1 45 12 -28 15 -29 33 -5 90 l15 37 84 0 83 0 17 -43 c22 -57 20 -76 -6
-87 -16 -6 4 -9 67 -9 71 1 84 3 63 10 -17 7 -34 26 -47 52 -19 42 -104 243
-136 325 -10 23 -20 42 -24 42 -3 0 -28 -53 -55 -118z m73 -61 c17 -40 31 -77
31 -82 0 -10 -123 -13 -132 -3 -3 3 10 41 30 85 19 43 36 78 38 76 1 -1 16
-35 33 -76z"/>
<path d="M4416 583 c-3 -16 -9 -39 -12 -53 -6 -24 -5 -23 30 10 21 19 42 43
47 53 8 15 5 17 -24 17 -29 0 -35 -4 -41 -27z"/>
<path d="M1033 450 c-49 -29 -66 -71 -61 -148 4 -59 7 -67 41 -98 43 -40 85
-44 133 -15 27 17 69 80 59 90 -2 2 -16 -11 -31 -28 -23 -28 -32 -32 -67 -29
-34 2 -45 9 -64 37 -50 74 -20 191 48 191 25 0 33 -6 45 -36 11 -27 20 -35 37
-32 31 4 33 33 3 63 -32 32 -96 34 -143 5z"/>
<path d="M1280 452 c-31 -14 -33 -16 -12 -20 21 -3 22 -7 22 -118 0 -110 -1
-115 -22 -124 -17 -6 -3 -9 52 -9 55 0 69 3 53 9 -22 9 -23 14 -23 145 0 151
1 150 -70 117z"/>
<path d="M1818 453 c-37 -24 -68 -83 -68 -133 0 -116 96 -181 196 -134 96 46
98 223 4 271 -35 18 -100 16 -132 -4z m104 -20 c31 -35 42 -69 42 -128 0 -69
-15 -102 -49 -111 -41 -10 -66 5 -87 53 -26 60 -22 168 7 189 26 19 69 17 87
-3z"/>
<path d="M2819 443 c-105 -89 -57 -273 71 -273 38 0 97 53 105 95 l6 30 -16
-27 c-32 -57 -98 -65 -139 -18 -50 61 -40 181 18 196 41 10 59 1 68 -34 7 -25
14 -32 33 -32 20 0 25 5 25 24 0 64 -111 89 -171 39z"/>
<path d="M3030 459 c0 -4 9 -9 20 -12 18 -5 20 -14 20 -100 0 -52 5 -108 11
-126 20 -56 77 -68 128 -25 l31 26 0 -26 c0 -31 11 -32 65 -7 31 15 35 20 18
20 -22 1 -22 5 -25 127 l-3 126 -47 2 c-49 2 -64 -7 -28 -17 18 -5 20 -14 20
-105 0 -93 -2 -102 -22 -116 -27 -19 -62 -21 -76 -3 -6 7 -13 64 -14 126 l-3
113 -47 2 c-27 1 -48 -1 -48 -5z"/>
<path d="M3385 451 c-30 -15 -35 -20 -19 -20 30 -1 34 -18 34 -126 0 -86 -2
-95 -22 -109 -21 -15 -18 -16 52 -15 47 1 66 4 50 8 -24 7 -25 10 -28 106 -3
92 -1 101 19 118 24 20 69 23 87 5 8 -8 12 -48 12 -115 0 -98 -1 -104 -22
-113 -17 -6 -3 -9 52 -9 67 -1 72 1 50 12 -24 12 -25 18 -28 107 -3 88 -1 95
20 112 29 22 84 24 92 2 3 -9 6 -60 6 -115 0 -94 -1 -100 -22 -109 -17 -6 -3
-9 52 -9 55 0 69 3 53 9 -21 9 -23 15 -23 97 0 102 -13 159 -40 173 -31 17
-73 11 -105 -14 l-30 -24 -22 24 c-30 32 -76 31 -120 -2 l-33 -25 0 25 c0 31
-12 32 -65 7z"/>
<path d="M3906 449 c-35 -28 -38 -82 -3 -77 17 2 23 11 27 38 4 29 9 36 33 38
37 4 57 -13 57 -52 0 -28 -4 -33 -48 -48 -62 -22 -105 -67 -104 -109 2 -65 65
-90 122 -49 l29 21 11 -21 c13 -24 37 -26 68 -4 27 19 29 34 3 27 -17 -4 -19
3 -23 107 -3 103 -5 114 -27 131 -33 27 -110 26 -145 -2z m114 -159 c0 -56 -2
-60 -31 -75 -29 -15 -32 -15 -50 1 -24 21 -25 66 -1 86 14 13 70 46 80 48 1 0
2 -27 2 -60z"/>
<path d="M4165 452 c-38 -15 -39 -16 -15 -22 25 -6 25 -8 28 -116 3 -107 2
-111 -20 -122 -19 -9 -10 -11 52 -11 67 -1 72 1 50 12 -24 12 -25 18 -28 103
-2 76 0 95 16 114 16 20 21 21 41 11 30 -17 53 -7 49 21 -5 36 -50 36 -82 1
l-26 -28 0 28 c0 31 -9 33 -65 9z"/>
<path d="M4390 452 c-31 -14 -33 -16 -12 -20 21 -3 22 -7 22 -118 0 -110 -1
-115 -22 -124 -17 -6 -3 -9 52 -9 55 0 69 3 53 9 -22 9 -23 14 -23 145 0 151
1 150 -70 117z"/>
<path d="M4555 452 c-38 -15 -39 -16 -15 -22 24 -6 25 -9 28 -100 3 -110 -1
-137 -26 -143 -9 -3 15 -5 53 -5 51 -1 64 2 48 8 -22 9 -23 15 -23 109 0 92 2
101 22 115 31 22 75 20 88 -3 11 -22 14 -190 2 -207 -4 -7 -16 -14 -27 -17
-11 -2 14 -5 55 -5 52 -1 68 2 53 8 -20 8 -21 17 -25 123 -2 96 -6 118 -22
136 -27 30 -77 27 -115 -5 l-31 -26 0 26 c0 30 -10 31 -65 8z"/>
<path d="M4890 453 c-33 -15 -34 -16 -12 -24 21 -8 22 -13 22 -119 0 -105 -1
-111 -22 -120 -17 -6 -2 -9 52 -8 41 0 67 2 57 5 -29 7 -37 46 -37 169 0 125
1 124 -60 97z"/>
<path d="M5103 450 c-43 -26 -63 -68 -63 -130 0 -117 89 -184 176 -131 27 17
69 80 59 90 -2 2 -16 -11 -31 -28 -23 -28 -32 -32 -67 -29 -34 2 -45 9 -64 37
-50 74 -20 191 48 191 25 0 33 -6 45 -36 11 -27 20 -35 37 -32 31 4 33 33 3
63 -32 32 -96 34 -143 5z"/>
<path d="M5381 444 c-61 -51 -77 -125 -41 -199 23 -48 64 -75 115 -75 126 0
186 162 96 262 -23 26 -37 32 -82 36 -49 4 -59 1 -88 -24z m123 -24 c44 -53
47 -169 5 -211 -57 -57 -129 17 -129 132 0 50 13 87 34 101 25 17 65 7 90 -22z"/>
<path d="M2260 450 c-24 -8 -24 -8 -2 -9 32 -1 29 -28 -18 -194 -50 -175 -54
-185 -82 -197 -17 -6 -3 -9 52 -9 55 0 69 3 53 9 -26 11 -27 12 -12 77 l11 49
58 -1 c69 0 99 18 147 88 40 60 51 122 29 166 -14 27 -22 31 -56 31 -30 0 -48
-8 -75 -31 l-35 -31 6 31 c6 29 5 31 -22 30 -16 -1 -40 -5 -54 -9z m191 -41
c24 -46 -36 -185 -93 -215 -36 -19 -78 -6 -78 23 0 30 29 113 51 149 39 63 97
84 120 43z"/>
<path d="M2550 320 c0 -18 7 -20 80 -20 73 0 80 2 80 20 0 18 -7 20 -80 20
-73 0 -80 -2 -80 -20z"/>
</g>
</svg>
