<?xml version="1.0" standalone="no"?>
<!DOCTYPE svg PUBLIC "-//W3C//DTD SVG 20010904//EN"
 "http://www.w3.org/TR/2001/REC-SVG-20010904/DTD/svg10.dtd">
<svg version="1.0" xmlns="http://www.w3.org/2000/svg"
 width="601.000000pt" height="318.000000pt" viewBox="0 0 601.000000 318.000000"
 preserveAspectRatio="xMidYMid meet">

<g transform="translate(0.000000,318.000000) scale(0.100000,-0.100000)"
fill="#000000" stroke="none">
<path d="M4420 3052 c-101 -53 -106 -252 -8 -312 67 -41 163 -35 216 14 39 35
55 77 56 142 0 71 -22 117 -74 151 -43 30 -139 32 -190 5z m132 -22 c32 0 76
-55 83 -104 9 -54 -8 -116 -39 -145 -55 -52 -159 -32 -191 36 -25 52 -17 144
15 178 25 26 75 46 98 39 8 -2 23 -4 34 -4z"/>
<path d="M1270 2623 c-195 -113 -358 -210 -362 -216 -12 -19 -10 -837 2 -837
5 0 9 -5 7 -10 -1 -6 110 -75 248 -155 210 -122 251 -142 258 -129 6 10 5 19
-1 23 -6 3 -117 67 -246 141 l-236 135 3 409 2 410 325 188 c179 103 335 192
347 199 19 10 60 -11 372 -191 l351 -203 -2 -405 -3 -405 -240 -138 c-146 -84
-240 -145 -240 -154 0 -8 4 -16 8 -16 5 -1 117 61 249 137 132 77 244 138 248
137 4 -1 162 -91 351 -201 190 -109 353 -199 364 -199 11 0 174 90 363 199
189 109 347 199 351 201 4 1 116 -60 249 -137 132 -76 244 -138 249 -137 4 0
8 8 8 16 0 9 -97 71 -240 154 l-240 138 -3 405 -2 405 249 144 c159 92 247
148 244 156 -3 7 -9 13 -14 13 -6 0 -119 -63 -253 -140 l-243 -140 -349 202
c-192 111 -358 202 -369 202 -11 0 -175 -90 -364 -199 -189 -109 -349 -198
-355 -198 -7 0 -166 88 -353 197 -188 108 -350 198 -360 200 -11 3 -164 -80
-373 -201z m2160 -35 l350 -202 -2 -404 -3 -403 -350 -203 -350 -202 -225 130
c-124 71 -281 162 -350 202 l-125 72 -3 404 -2 404 347 202 c192 110 351 201
356 202 4 0 165 -91 357 -202z"/>
<path d="M2768 2512 c-261 -151 -304 -181 -280 -195 11 -8 587 329 587 343 0
7 -4 15 -10 16 -5 2 -139 -72 -297 -164z"/>
<path d="M3650 1985 c0 -306 2 -346 15 -343 14 3 16 46 16 343 0 297 -2 340
-16 343 -13 3 -15 -37 -15 -343z"/>
<path d="M2485 1652 c-3 -3 -5 -11 -5 -18 0 -13 551 -336 578 -338 52 -4 -12
41 -275 193 -161 93 -295 166 -298 163z"/>
<path d="M4725 2690 c-10 -16 -11 -15 154 -109 122 -70 146 -80 157 -69 12 12
-9 27 -133 98 -164 94 -168 96 -178 80z"/>
<path d="M1328 2512 c-158 -92 -288 -172 -288 -179 0 -6 4 -14 8 -17 13 -8
587 329 587 344 0 7 -4 14 -10 16 -5 1 -139 -73 -297 -164z"/>
<path d="M5164 2641 c-60 -27 -88 -78 -88 -161 0 -112 50 -171 152 -178 63 -5
104 10 142 50 47 51 6 72 -44 22 -29 -29 -41 -34 -81 -34 -40 0 -52 5 -80 33
-57 57 -59 150 -5 210 26 29 34 32 85 32 50 0 60 -3 81 -28 17 -20 30 -27 44
-22 25 8 25 16 -1 44 -48 51 -133 65 -205 32z"/>
<path d="M5460 2474 l0 -175 23 3 c20 3 22 9 25 86 l3 83 92 -3 92 -3 3 -82
c3 -75 5 -83 22 -83 19 0 20 8 20 175 0 167 -1 175 -20 175 -17 0 -19 -8 -22
-71 l-3 -71 -93 -1 -92 -2 0 73 c0 70 -1 72 -25 72 l-25 0 0 -176z"/>
<path d="M5822 2383 c-29 -29 -14 -47 17 -19 24 22 68 21 76 -3 9 -29 -4 -48
-36 -55 -35 -7 -39 -26 -5 -26 14 0 32 -7 40 -16 19 -18 19 -20 6 -45 -15 -27
-64 -25 -84 3 -11 15 -19 19 -26 12 -25 -25 23 -64 76 -64 28 0 74 40 74 65 0
9 -10 26 -23 39 -22 22 -23 24 -5 35 24 15 23 56 -2 81 -29 29 -75 26 -108 -7z"/>
<path d="M622 1492 c-211 -122 -250 -148 -239 -159 11 -12 53 9 258 128 134
77 246 142 247 144 2 2 0 10 -5 18 -6 12 -58 -14 -261 -131z"/>
<path d="M709 1396 c-279 -162 -277 -161 -263 -176 9 -9 71 23 258 131 221
127 264 158 239 172 -5 2 -110 -55 -234 -127z"/>
<path d="M111 1392 c-111 -56 -117 -236 -11 -314 66 -48 186 -28 238 39 22 30
27 48 30 107 2 59 -1 77 -20 110 -13 21 -39 47 -58 57 -45 24 -133 25 -179 1z
m171 -51 c28 -25 32 -35 36 -93 7 -110 -42 -166 -137 -155 -87 10 -133 106
-96 203 20 53 52 73 117 74 39 0 54 -5 80 -29z"/>
<path d="M1554 1396 c-63 -28 -101 -111 -89 -195 14 -91 65 -139 157 -147 115
-11 193 70 186 193 -4 70 -23 103 -78 141 -38 26 -125 30 -176 8z m154 -42
c33 -23 52 -67 52 -119 0 -99 -51 -152 -137 -142 -50 5 -80 28 -99 74 -28 65
-10 154 37 187 30 21 117 21 147 0z"/>
<path d="M4419 1390 c-95 -50 -107 -233 -21 -300 38 -30 94 -44 148 -35 155
23 194 267 54 337 -47 24 -134 23 -181 -2z m166 -36 c35 -23 59 -93 50 -149
-9 -66 -47 -105 -106 -112 -95 -11 -144 45 -137 155 4 58 8 68 36 93 27 24 41
29 83 29 28 0 60 -7 74 -16z"/>
<path d="M4750 1235 l0 -175 25 0 c25 0 25 1 25 80 l0 80 95 0 95 0 0 -80 c0
-79 0 -80 25 -80 l25 0 0 175 0 175 -25 0 c-24 0 -25 -2 -25 -75 l0 -75 -95 0
-95 0 0 75 c0 73 -1 75 -25 75 l-25 0 0 -175z"/>
<path d="M3270 475 l0 -215 25 0 25 0 0 215 0 215 -25 0 -25 0 0 -215z"/>
<path d="M4290 475 l0 -215 25 0 25 0 0 215 0 215 -25 0 -25 0 0 -215z"/>
<path d="M1426 645 c-9 -25 -7 -358 2 -373 6 -9 36 -12 113 -10 90 3 104 5
107 20 3 16 -6 18 -82 18 l-86 0 0 75 0 75 70 0 c63 0 70 2 70 20 0 18 -7 20
-70 20 l-70 0 0 65 0 64 83 3 c65 2 82 6 82 18 0 23 -210 28 -219 5z"/>
<path d="M3750 600 c0 -36 -2 -40 -25 -40 -18 0 -25 -5 -25 -20 0 -15 7 -20
25 -20 l25 0 0 -102 c0 -114 11 -148 51 -162 38 -13 79 0 79 25 0 17 -4 20
-24 15 -45 -11 -56 14 -56 125 l0 99 40 0 c33 0 40 3 40 20 0 17 -7 20 -40 20
l-40 0 0 40 c0 36 -2 40 -25 40 -22 0 -25 -4 -25 -40z"/>
<path d="M1765 560 c-28 -11 -44 -31 -51 -66 -7 -38 15 -67 81 -102 39 -21 51
-33 53 -54 5 -42 -35 -57 -94 -36 -44 15 -44 15 -44 -7 0 -18 9 -26 36 -35 80
-27 154 13 154 81 0 43 -22 70 -74 90 -42 17 -66 38 -66 60 0 35 58 48 113 24
13 -5 17 -2 17 14 0 34 -73 53 -125 31z"/>
<path d="M2022 550 c-41 -25 -62 -73 -62 -140 0 -94 39 -149 112 -157 52 -5
108 25 108 58 0 11 -3 19 -7 17 -5 -2 -25 -12 -46 -23 -35 -18 -41 -18 -65 -4
-41 23 -54 56 -48 124 4 49 9 64 31 82 31 27 49 28 89 8 37 -20 46 -19 46 5 0
24 -47 50 -92 50 -18 0 -48 -9 -66 -20z"/>
<path d="M2303 554 c-63 -31 -93 -148 -59 -229 39 -93 183 -99 241 -11 48 73
19 213 -49 241 -45 19 -93 19 -133 -1z m107 -39 c33 -17 45 -48 44 -113 -1
-56 -20 -89 -59 -102 -45 -15 -82 1 -100 45 -28 65 -12 145 34 170 34 18 46
18 81 0z"/>
<path d="M2666 545 c-34 -23 -36 -23 -36 -5 0 13 -7 20 -20 20 -19 0 -20 -7
-20 -210 l0 -210 25 0 c24 0 25 2 25 77 0 74 1 76 19 59 28 -25 83 -31 118
-12 42 21 67 78 67 151 -1 131 -85 193 -178 130z m95 -34 c18 -14 23 -31 27
-80 7 -99 -31 -155 -90 -132 -47 18 -59 43 -56 117 3 65 5 69 37 91 41 28 52
28 82 4z"/>
<path d="M2983 554 c-63 -31 -93 -148 -59 -229 39 -93 183 -99 241 -11 48 73
19 213 -49 241 -45 19 -93 19 -133 -1z m107 -39 c33 -17 45 -48 44 -113 -1
-56 -20 -89 -59 -102 -45 -15 -82 1 -100 45 -28 65 -12 145 34 170 34 18 46
18 81 0z"/>
<path d="M3471 553 c-42 -21 -70 -80 -71 -148 0 -106 58 -160 165 -151 41 3
63 10 72 22 19 25 3 35 -37 24 -78 -22 -132 3 -145 68 l-7 32 101 0 c58 0 102
4 106 10 13 21 -7 92 -34 122 -34 38 -99 47 -150 21z m107 -40 c12 -10 24 -30
28 -45 l6 -28 -82 0 c-80 0 -81 0 -75 23 19 60 81 85 123 50z"/>
<path d="M4003 554 c-63 -31 -93 -148 -59 -229 39 -93 183 -99 241 -11 48 73
19 213 -49 241 -45 19 -93 19 -133 -1z m107 -39 c33 -17 45 -48 44 -113 -1
-56 -20 -89 -59 -102 -45 -15 -82 1 -100 45 -28 65 -12 145 34 170 34 18 46
18 81 0z"/>
</g>
</svg>
