<?xml version="1.0" standalone="no"?>
<!DOCTYPE svg PUBLIC "-//W3C//DTD SVG 20010904//EN"
 "http://www.w3.org/TR/2001/REC-SVG-20010904/DTD/svg10.dtd">
<svg version="1.0" xmlns="http://www.w3.org/2000/svg"
 width="240.000000pt" height="541.000000pt" viewBox="0 0 240.000000 541.000000"
 preserveAspectRatio="xMidYMid meet">

<g transform="translate(0.000000,541.000000) scale(0.100000,-0.100000)"
fill="#000000" stroke="none">
<path d="M1130 5291 c-76 -23 -127 -69 -162 -146 -18 -40 -23 -68 -23 -136 0
-75 4 -92 30 -144 72 -140 237 -185 376 -102 44 26 60 44 86 95 30 58 33 72
33 151 0 78 -3 95 -31 149 -34 68 -85 112 -154 131 -45 12 -117 13 -155 2z
m182 -86 c60 -40 83 -94 83 -196 0 -78 -3 -90 -30 -134 -82 -132 -269 -117
-330 27 -18 44 -20 154 -4 209 34 111 181 160 281 94z"/>
<path d="M1570 5010 l0 -280 40 0 40 0 0 133 0 132 145 -3 145 -3 0 -130 0
-129 35 0 35 0 0 280 0 280 -35 0 -35 0 0 -115 0 -115 -145 0 -145 0 0 115 0
115 -40 0 -40 0 0 -280z"/>
<path d="M1180 4206 l0 -443 -560 -323 -560 -324 2 -664 3 -665 345 -199 c190
-110 447 -258 571 -329 l226 -130 574 330 574 331 -5 666 -5 666 -550 318
-550 318 -3 446 -2 446 -30 0 -30 0 0 -444z m583 -812 l536 -309 1 -631 0
-631 -542 -313 c-299 -172 -547 -313 -553 -313 -10 1 -1064 608 -1077 621 -4
4 -8 291 -8 637 l-1 630 538 312 c296 172 545 311 554 309 9 -2 258 -142 552
-312z"/>
<path d="M1212 3528 c-7 -7 -12 -17 -12 -22 0 -6 205 -129 456 -274 367 -212
458 -261 470 -251 8 6 14 17 14 23 0 9 -896 536 -912 536 -2 0 -9 -5 -16 -12z"/>
<path d="M257 2983 c-4 -3 -7 -244 -7 -535 l0 -528 30 0 30 0 0 535 0 535 -23
0 c-13 0 -27 -3 -30 -7z"/>
<path d="M1658 1678 c-251 -145 -457 -268 -458 -274 0 -5 6 -17 13 -26 11 -15
64 13 467 246 250 145 456 268 457 273 2 5 -2 17 -9 26 -12 16 -55 -7 -470
-245z"/>
<path d="M1610 580 c0 -173 1 -180 20 -180 19 0 20 7 20 180 0 173 -1 180 -20
180 -19 0 -20 -7 -20 -180z"/>
<path d="M560 565 c0 -158 1 -165 20 -165 18 0 20 7 20 75 l0 75 60 0 c53 0
60 2 60 20 0 18 -7 20 -60 20 l-60 0 0 50 0 50 65 0 c58 0 65 2 65 20 0 18 -7
20 -85 20 l-85 0 0 -165z"/>
<path d="M829 635 c-33 -18 -52 -62 -51 -120 1 -56 14 -80 52 -100 34 -18 75
-19 119 -4 44 15 43 43 -1 33 -75 -18 -128 6 -128 57 0 17 8 19 80 19 91 0 99
7 80 65 -19 58 -92 82 -151 50z m85 -26 c23 -11 40 -42 28 -53 -3 -3 -32 -6
-64 -6 -41 0 -58 4 -58 13 0 24 31 53 62 56 4 1 18 -4 32 -10z"/>
<path d="M1050 525 c0 -118 1 -125 20 -125 18 0 20 7 20 85 0 74 3 87 22 105
28 26 74 26 88 1 5 -11 10 -58 10 -105 0 -81 1 -86 21 -86 20 0 21 4 17 106
-3 97 -5 107 -27 125 -28 23 -62 24 -101 4 -27 -14 -30 -14 -30 0 0 8 -9 15
-20 15 -19 0 -20 -7 -20 -125z"/>
<path d="M1374 636 c-80 -36 -77 -196 4 -227 39 -15 100 -4 128 22 48 45 51
147 6 192 -25 25 -97 32 -138 13z m110 -48 c9 -12 16 -41 16 -63 0 -58 -22
-85 -70 -85 -48 0 -70 27 -70 85 0 58 22 85 70 85 29 0 43 -6 54 -22z"/>
</g>
</svg>
