<?xml version="1.0" encoding="UTF-8" standalone="no"?>
<!-- Created with Inkscape (http://www.inkscape.org/) -->
<svg
   xmlns:svg="http://www.w3.org/2000/svg"
   xmlns="http://www.w3.org/2000/svg"
   version="1.0"
   width="620"
   height="324.67001"
   id="svg2">
  <defs
     id="defs4" />
  <g
     transform="translate(443.50001,-552.64628)"
     id="layer1">
    <path
       d="M -250.14653,867.07352 C -253.11496,866.10307 -255.6608,863.82665 -257.13499,860.82461 C -258.28808,858.4765 -258.44173,857.64278 -258.44173,853.73468 C -258.44173,849.82261 -258.28867,848.99406 -257.13005,846.63464 C -254.32466,840.92169 -248.50411,838.52181 -242.09278,840.43457 C -237.15258,841.90844 -234.10951,846.22725 -233.64036,852.43044 C -232.98995,861.03029 -237.63518,867.07441 -245.25018,867.53655 C -246.97253,867.64108 -248.99569,867.44975 -250.14653,867.07352 z M -241.08292,862.76641 C -238.82789,860.96882 -237.66789,858.59759 -237.35488,855.14572 C -236.87501,849.85358 -238.84463,845.58064 -242.5368,843.90396 C -247.35639,841.7153 -252.749,844.1774 -254.25689,849.25501 C -256.74074,857.61904 -252.58599,864.7836 -245.51183,864.33519 C -243.39438,864.20097 -242.47324,863.87469 -241.08292,862.76641 z M -143.38662,867.07352 C -146.35505,866.10307 -148.90089,863.82665 -150.37509,860.82461 C -151.52817,858.4765 -151.68183,857.64278 -151.68183,853.73468 C -151.68183,849.82261 -151.52876,848.99406 -150.37015,846.63464 C -147.56476,840.92169 -141.7442,838.52181 -135.33288,840.43457 C -130.39268,841.90844 -127.3496,846.22725 -126.88045,852.43044 C -126.23005,861.03029 -130.87527,867.07441 -138.49027,867.53655 C -140.21262,867.64108 -142.23578,867.44975 -143.38662,867.07352 z M -134.32302,862.76641 C -132.06799,860.96882 -130.90798,858.59759 -130.59498,855.14572 C -130.1151,849.85358 -132.08472,845.58064 -135.77689,843.90396 C -140.59648,841.7153 -145.9891,844.1774 -147.49698,849.25501 C -149.98084,857.61904 -145.82608,864.7836 -138.75192,864.33519 C -136.63448,864.20097 -135.71333,863.87469 -134.32302,862.76641 z M -228.83801,853.73468 L -228.83801,840.21486 L -226.9732,840.21486 L -225.1084,840.21486 L -225.1084,845.80927 L -225.1084,851.40367 L -218.11539,851.40367 L -211.12239,851.40367 L -211.12239,845.80927 L -211.12239,840.21486 L -209.25759,840.21486 L -207.39278,840.21486 L -207.39278,853.73468 L -207.39278,867.25449 L -209.25759,867.25449 L -211.12239,867.25449 L -211.12239,860.96078 L -211.12239,854.66708 L -218.11539,854.66708 L -225.1084,854.66708 L -225.1084,860.96078 L -225.1084,867.25449 L -226.9732,867.25449 L -228.83801,867.25449 L -228.83801,853.73468 z M -247.13194,814.70328 L -247.25292,791.98889 L -273.59325,776.7787 L -299.93358,761.5685 L -300.06649,730.61196 L -300.19939,699.65542 L -318.2483,689.2744 C -328.1752,683.56484 -336.57019,678.72064 -336.90382,678.50953 C -337.37774,678.20964 -337.39344,677.86894 -336.97558,676.95183 L -336.44074,675.77798 L -317.95406,686.46557 C -307.78638,692.34375 -299.35048,697.1917 -299.2076,697.2388 C -299.06472,697.28589 -287.0406,690.45379 -272.48733,682.05636 C -257.93406,673.65892 -245.84431,666.78829 -245.62122,666.78829 C -245.39814,666.78829 -233.30839,673.65892 -218.75511,682.05636 C -204.20184,690.45379 -192.17772,697.28589 -192.03484,697.2388 C -191.89197,697.1917 -183.45606,692.34375 -173.28839,686.46557 C -154.90495,675.83767 -154.79885,675.78424 -154.29072,676.89947 C -154.00967,677.5163 -153.77973,678.07217 -153.77973,678.13475 C -153.77973,678.19732 -162.16341,683.06507 -172.41014,688.95197 L -191.04055,699.65542 L -191.04322,729.72535 L -191.04589,759.79528 L -164.93224,774.84436 L -138.81859,789.89344 L -112.73272,774.84726 L -86.64686,759.80108 L -86.65322,729.72825 L -86.65958,699.65542 L -105.29488,688.93281 C -115.5443,683.03538 -123.92638,678.00041 -123.92172,677.744 C -123.91706,677.48759 -123.65677,676.94105 -123.3433,676.52947 C -122.8412,675.87023 -120.4564,677.11902 -103.31168,687.01898 L -83.85001,698.25682 L -83.84984,729.74168 L -83.84966,761.22655 L -108.20863,775.28412 L -132.56761,789.34169 L -132.68835,813.37967 L -132.8091,837.41766 L -134.20351,837.41766 L -135.59791,837.41766 L -135.59791,814.30189 C -135.59791,801.58821 -135.75525,791.26278 -135.94756,791.35647 C -136.13987,791.45017 -136.88518,791.82105 -137.60381,792.18064 C -138.75296,792.75566 -139.07061,792.73981 -140.23984,792.04913 C -140.97104,791.61721 -141.69425,791.26381 -141.847,791.26381 C -141.99974,791.26381 -142.12472,801.64843 -142.12472,814.34074 L -142.12472,837.41766 L -143.51912,837.41766 L -144.91353,837.41766 L -145.03428,813.34304 L -145.15502,789.26843 L -168.67945,775.67981 L -192.20387,762.09119 L -218.0967,777.04587 L -243.98952,792.00054 L -244.1105,814.7091 L -244.23149,837.41766 L -245.62122,837.41766 L -247.01095,837.41766 L -247.13194,814.70328 z M -219.29882,774.7137 L -193.41911,759.79528 L -193.42432,729.72535 L -193.42954,699.65542 L -219.52344,684.61757 L -245.61734,669.57971 L -271.71157,684.61757 L -297.8058,699.65542 L -297.81186,729.72535 L -297.81792,759.79528 L -271.83612,774.80581 C -257.54613,783.06161 -245.70227,789.77489 -245.51642,789.72423 C -245.33058,789.67356 -233.53266,782.91883 -219.29882,774.7137 z M -245.56316,780.71555 C -245.8707,780.04057 -246.06203,779.44693 -245.98833,779.39636 C -244.39022,778.29972 -202.61338,754.43398 -202.29183,754.43398 C -201.83815,754.43398 -200.64427,756.2644 -200.94476,756.49925 C -201.02963,756.56559 -210.32576,761.93288 -221.60281,768.42656 C -232.87987,774.92024 -242.75847,780.6179 -243.55527,781.08803 L -245.004,781.94279 L -245.56316,780.71555 z M -291.30887,729.72535 L -291.30887,704.08433 L -289.91027,704.08433 L -288.51167,704.08433 L -288.51167,729.72535 L -288.51167,755.36638 L -289.91027,755.36638 L -291.30887,755.36638 L -291.30887,729.72535 z M -224.176,692.66147 C -235.84267,685.89112 -245.57456,680.27977 -245.80243,680.19181 C -246.03031,680.10386 -245.92541,679.4843 -245.56933,678.81503 L -244.92192,677.59816 L -223.2436,690.13331 C -211.32052,697.02764 -201.37785,702.73481 -201.14877,702.81592 C -200.56284,703.02339 -201.70853,705.02166 -202.39753,704.99397 C -202.70902,704.98145 -212.50933,699.43183 -224.176,692.66147 z M -6.32789,684.57312 L -33.46813,668.88619 L -33.36752,637.24577 L -33.26691,605.60534 L -6.22728,589.98009 C 8.64451,581.38619 21.04512,574.34816 21.32962,574.34001 C 21.61412,574.33187 33.76502,581.20663 48.3316,589.61728 C 68.62255,601.33312 74.98866,604.80531 75.55328,604.46446 C 81.95519,600.59961 111.4674,583.80461 111.85682,583.80461 C 112.14894,583.80461 112.60577,584.21161 112.87197,584.70905 C 113.42461,585.74164 115.21771,584.60323 90.85896,598.68492 L 76.0571,607.24181 L 76.0571,638.0687 L 76.0571,668.89558 L 48.83001,684.62515 C 33.85514,693.27642 21.42507,700.33342 21.20765,700.30739 C 20.99023,700.28136 8.59924,693.20094 -6.32789,684.57312 z M 48.24405,681.93981 L 73.25864,667.48759 L 73.14274,637.21666 L 73.0268,606.94573 L 47.38577,592.11895 C 33.28321,583.96422 21.60141,577.28893 21.42622,577.28498 C 21.25103,577.28103 9.50278,583.97925 -4.681,592.1699 L -30.46971,607.062 L -30.46971,637.26697 L -30.46971,667.47193 L -4.59558,682.44002 C 17.93022,695.47112 21.40477,697.34237 22.25397,696.90007 C 22.79045,696.62064 34.48596,689.88852 48.24405,681.93981 z M -1.31573,676.66806 C -13.21502,669.79423 -23.00958,663.97256 -23.08141,663.73099 C -23.15325,663.48943 -22.93587,662.92753 -22.59834,662.48232 C -22.03713,661.74208 -20.1147,662.75249 -0.11995,674.29669 C 11.90563,681.2398 21.81173,686.98573 21.8936,687.06542 C 22.09209,687.25864 20.89047,689.16591 20.57025,689.16591 C 20.43224,689.16591 10.58355,683.54188 -1.31573,676.66806 z M 64.40209,637.18456 L 64.40209,611.77664 L 65.56759,611.77664 L 66.73309,611.77664 L 66.73309,637.18456 L 66.73309,662.59249 L 65.56759,662.59249 L 64.40209,662.59249 L 64.40209,637.18456 z M -22.80419,611.72658 C -23.09337,611.18623 -23.1532,610.58804 -22.93714,610.39727 C -22.21081,609.75595 20.6669,585.13519 20.79374,585.28661 C 21.37348,585.97869 21.91098,587.51747 21.62945,587.67913 C 21.43646,587.78995 11.59721,593.46702 -0.23553,600.29483 C -12.06828,607.12264 -21.86859,612.70904 -22.01401,612.70904 C -22.15942,612.70904 -22.515,612.26693 -22.80419,611.72658 z M -79.6698,695.66292 C -80.05204,694.94871 -80.04156,694.52817 -79.62912,694.03122 C -78.83171,693.07039 -77.90548,693.20546 -77.28023,694.37376 C -76.83139,695.21243 -76.88378,695.49196 -77.58603,696.00546 C -78.73335,696.84441 -79.06683,696.78959 -79.6698,695.66292 z M -73.08852,691.69062 C -74.04442,690.0705 -74.05239,689.96183 -73.25947,689.36125 C -72.13655,688.51071 -71.83022,688.66754 -70.6787,690.68246 C -69.60565,692.56008 -69.61814,692.63283 -71.0913,693.08485 C -71.89219,693.33059 -72.2811,693.05911 -73.08852,691.69062 z M -404.95125,689.63356 C -405.7879,689.12346 -406.82917,687.95799 -407.26519,687.04365 C -407.95428,685.59862 -407.96873,685.32477 -407.37572,684.94969 C -406.2175,684.21712 -405.66403,684.44855 -405.0544,685.92033 C -404.36257,687.59056 -403.3306,688.23351 -401.34164,688.23351 C -398.5947,688.23351 -396.7544,685.09503 -398.06519,682.64579 C -398.62231,681.60481 -401.33786,680.62685 -402.46755,681.06035 C -403.11142,681.30743 -403.24648,681.15604 -403.12146,680.3274 C -403.01041,679.59141 -402.42702,679.09936 -401.14568,678.66096 C -398.38156,677.71524 -397.72533,675.98954 -399.46738,674.2475 C -401.20229,672.51258 -404.76127,673.57908 -405.59629,676.0841 C -405.73336,676.49533 -406.15304,676.59092 -406.85014,676.36966 C -408.17395,675.9495 -407.85835,674.59099 -405.99019,672.66807 C -404.13755,670.76112 -400.81477,670.45812 -398.57091,671.9915 C -395.99712,673.75036 -395.51904,677.00059 -397.57516,678.76111 C -398.42585,679.48948 -398.40256,679.5632 -396.86309,681.01511 C -391.95031,685.64845 -399.06072,693.22505 -404.95125,689.63356 z M -66.45358,687.96947 L -67.92132,685.49275 L -66.80591,684.7619 C -65.70961,684.04358 -65.66642,684.07305 -64.28494,686.48194 C -63.51189,687.82992 -62.87742,689.05648 -62.87501,689.20763 C -62.87261,689.35878 -63.34656,689.69929 -63.92824,689.96432 C -64.89174,690.40333 -65.11644,690.22583 -66.45358,687.96947 z M -59.84045,684.18038 C -61.55485,681.24966 -61.59586,681.08543 -60.76483,680.47777 C -60.28655,680.12804 -59.74359,679.8419 -59.55826,679.8419 C -59.18346,679.8419 -55.69974,685.89421 -55.95168,686.10766 C -56.03916,686.18177 -56.54628,686.46847 -57.07861,686.74477 C -57.95504,687.19967 -58.21597,686.95739 -59.84045,684.18038 z M -52.40145,681.81769 C -53.0988,680.6028 -54.06289,678.95214 -54.54387,678.14955 L -55.41839,676.69029 L -54.28352,675.9467 C -53.14949,675.20366 -53.14704,675.20589 -50.98027,678.96243 C -49.78766,681.03007 -48.8807,682.77965 -48.96481,682.85039 C -49.04891,682.92113 -49.57129,683.21471 -50.12564,683.5028 C -51.04025,683.9781 -51.25091,683.82212 -52.40145,681.81769 z M -384.23017,682.42987 C -387.16691,681.3825 -388.70116,679.83959 -390.51229,676.1123 C -391.59249,673.88926 -391.75934,672.95909 -391.76664,669.11929 C -391.77596,664.22347 -390.81676,661.28202 -388.37012,658.70364 C -385.58827,655.77199 -380.42194,654.44352 -376.22144,655.57973 C -373.78646,656.23839 -370.85601,658.87374 -369.87264,661.28924 L -369.16954,663.0163 L -370.9152,663.49882 C -371.87531,663.76421 -372.71413,663.82619 -372.77925,663.63657 C -373.25246,662.25858 -375.00002,660.10066 -376.26964,659.32657 C -379.6421,657.27035 -384.80632,658.85993 -386.87996,662.59249 C -387.89415,664.41803 -388.04546,665.26537 -388.04546,669.11929 C -388.04546,672.97322 -387.89415,673.82056 -386.87996,675.6461 C -385.32313,678.4484 -382.44268,679.9844 -379.26948,679.70438 C -376.46633,679.45701 -374.85705,678.30478 -373.36015,675.47335 C -372.23815,673.35105 -372.13375,673.27989 -370.56295,673.56662 C -369.66551,673.73043 -368.8642,673.93027 -368.78226,674.01071 C -368.28889,674.49505 -370.9788,679.1928 -372.49035,680.48663 C -375.47261,683.03934 -380.28689,683.83622 -384.23017,682.42987 z M -356.44023,682.45814 C -359.40867,681.48768 -361.9545,679.21126 -363.4287,676.20923 C -364.58178,673.86111 -364.73544,673.0274 -364.73544,669.11929 C -364.73544,665.20722 -364.58237,664.37868 -363.42376,662.01925 C -360.61837,656.30631 -354.79781,653.90642 -348.38649,655.81919 C -343.44629,657.29306 -340.40321,661.61186 -339.93407,667.81506 C -339.28366,676.4149 -343.92888,682.45903 -351.54388,682.92117 C -353.26623,683.02569 -355.28939,682.83437 -356.44023,682.45814 z M -347.37663,678.15102 C -345.1216,676.35343 -343.9616,673.98221 -343.64859,670.53034 C -343.16871,665.23819 -345.13833,660.96526 -348.8305,659.28858 C -353.65009,657.09991 -359.04271,659.56202 -360.5506,664.63962 C -363.03445,673.00366 -358.87969,680.16821 -351.80553,679.71981 C -349.68809,679.58559 -348.76694,679.2593 -347.37663,678.15102 z M -143.38662,682.45814 C -146.35505,681.48768 -148.90089,679.21126 -150.37509,676.20923 C -151.52817,673.86111 -151.68183,673.0274 -151.68183,669.11929 C -151.68183,665.20722 -151.52876,664.37868 -150.37015,662.01925 C -147.56476,656.30631 -141.7442,653.90642 -135.33288,655.81919 C -130.39268,657.29306 -127.3496,661.61186 -126.88045,667.81506 C -126.23005,676.4149 -130.87527,682.45903 -138.49027,682.92117 C -140.21262,683.02569 -142.23578,682.83437 -143.38662,682.45814 z M -134.32302,678.15102 C -132.06799,676.35343 -130.90798,673.98221 -130.59498,670.53034 C -130.1151,665.23819 -132.08472,660.96526 -135.77689,659.28858 C -140.59648,657.09991 -145.9891,659.56202 -147.49698,664.63962 C -149.98084,673.00366 -145.82608,680.16821 -138.75192,679.71981 C -136.63448,679.58559 -135.71333,679.2593 -134.32302,678.15102 z M -433.50001,669.11929 L -433.50001,655.59948 L -431.63521,655.59948 L -429.77041,655.59948 L -429.77041,661.19388 L -429.77041,666.78829 L -422.7774,666.78829 L -415.78439,666.78829 L -415.78439,661.19388 L -415.78439,655.59948 L -413.91959,655.59948 L -412.05479,655.59948 L -412.05479,669.11929 L -412.05479,682.63911 L -413.91959,682.63911 L -415.78439,682.63911 L -415.78439,676.3454 L -415.78439,670.05169 L -422.7774,670.05169 L -429.77041,670.05169 L -429.77041,676.3454 L -429.77041,682.63911 L -431.63521,682.63911 L -433.50001,682.63911 L -433.50001,669.11929 z M -46.01426,677.60884 C -49.15931,672.17631 -49.1136,672.30452 -48.15525,671.60375 C -47.68916,671.26294 -47.17566,670.98409 -47.01414,670.98409 C -46.66875,670.98409 -42.12472,678.94994 -42.12472,679.5554 C -42.12472,679.78243 -42.59238,680.14119 -43.16397,680.35264 C -44.09189,680.6959 -44.39725,680.40195 -46.01426,677.60884 z M -37.86406,676.46195 C -38.22482,675.88503 -39.48627,673.73468 -40.66726,671.6834 L -42.81454,667.95379 L -41.82084,667.12629 C -41.2743,666.67115 -40.77137,666.35647 -40.70321,666.42699 C -40.63506,666.4975 -39.29951,668.75799 -37.73532,671.4503 C -35.14595,675.90718 -34.96226,676.39757 -35.68339,676.92815 C -36.78253,677.73686 -37.11069,677.66671 -37.86406,676.46195 z M 123.74624,589.68424 C 120.7778,588.7138 118.23197,586.43737 116.7578,583.43534 C 115.6047,581.08722 115.45104,580.25351 115.45104,576.3454 C 115.45104,572.43333 115.60409,571.60479 116.76274,569.24536 C 119.5681,563.53242 125.38866,561.13253 131.79999,563.0453 C 136.74018,564.51917 139.78325,568.83797 140.25239,575.04117 C 140.90283,583.64101 136.25761,589.68514 128.6426,590.14728 C 126.92022,590.2518 124.8971,590.06048 123.74624,589.68424 z M 132.80983,585.37713 C 135.06489,583.57954 136.22489,581.20832 136.53789,577.75645 C 137.01775,572.4643 135.04815,568.19137 131.35598,566.51469 C 126.5364,564.32602 121.14377,566.78813 119.63589,571.86573 C 117.15202,580.22977 121.3068,587.39432 128.38092,586.94591 C 130.4984,586.8117 131.41952,586.48541 132.80983,585.37713 z M 145.05477,576.3454 L 145.05477,562.82559 L 146.91957,562.82559 L 148.78437,562.82559 L 148.78437,568.41999 L 148.78437,574.0144 L 155.77738,574.0144 L 162.77039,574.0144 L 162.77039,568.41999 L 162.77039,562.82559 L 164.63519,562.82559 L 166.49999,562.82559 L 166.49999,576.3454 L 166.49999,589.86522 L 164.63519,589.86522 L 162.77039,589.86522 L 162.77039,583.57151 L 162.77039,577.2778 L 155.77738,577.2778 L 148.78437,577.2778 L 148.78437,583.57151 L 148.78437,589.86522 L 146.91957,589.86522 L 145.05477,589.86522 L 145.05477,576.3454 z"
       id="path2525"
       style="fill:#000000" />
  </g>
</svg>
